<svg width="30" height="30" viewBox="0 0 30 30" fill="none" xmlns="http://www.w3.org/2000/svg">
<path d="M15 0C6.71572 0 0 6.71572 0 15C0 23.2843 6.71572 30 15 30C23.2843 30 30 23.2843 30 15C30 6.71572 23.2843 0 15 0ZM24.1406 20.7129C24.1406 21.8961 23.1814 22.8552 21.9983 22.8552H8.00168C6.8185 22.8552 5.85938 21.896 5.85938 20.7129V9.28711C5.85938 8.10393 6.81855 7.1448 8.00168 7.1448H21.9983C23.1814 7.1448 24.1406 8.10398 24.1406 9.28711L24.1406 20.7129Z" fill="white"/>
<path d="M19.5974 9.76776L15 12.4221L10.4026 9.76776C9.89022 9.47198 9.23514 9.64753 8.9393 10.1598C8.64352 10.6722 8.81907 11.3272 9.33135 11.6231L14.4644 14.5866C14.6271 14.6804 14.8123 14.7297 14.9999 14.7299C15.1877 14.7297 15.3728 14.6803 15.5354 14.5865L20.6685 11.6231C21.1809 11.3273 21.3564 10.6722 21.0606 10.1598C20.7649 9.64753 20.1098 9.47198 19.5974 9.76776Z" fill="white"/>
</svg>
